<?xml version="1.0" encoding="utf-8"?>
<svg version="1.1" xmlns="http://www.w3.org/2000/svg" xmlns:xlink="http://www.w3.org/1999/xlink" x="0px" y="0px"
	 viewBox="0 0 521 110.8">
<g>
	<path fill="#C8C7C7" d="M40.4,30.6c-7.1,0-13.7,1.9-19.3,5V12.9C21.1,4,16.5,0,10.7,0C3.3,0,0,5,0,12.9v84.5
		c0,7.6,4.2,12.6,10.6,12.7c4,0,7.1-1.9,9-5c5.6,3.1,12.7,5.6,20.8,5.6c22.1,0,40.1-18,40.1-40.1C80.5,48.6,62.5,30.6,40.4,30.6z
		 M40.4,89.9c-1.3,0-2.6-0.1-3.8-0.4c-3.8,3.3-8.2,3.9-12.5,4v-1c2.5-1.2,4.6-3.4,4.6-5.9c0-0.2,0-0.4,0-0.7
		c-4.6-3.5-7.4-9-7.4-15.4c0-10.9,8.2-19.3,19.1-19.3c10.7,0,19.1,8.4,19.1,19.3C59.5,81.6,51.1,89.9,40.4,89.9z"/>
	<path fill="#C8C7C7" d="M143.4,84.7c0.9-0.2,1.7-0.3,2.5-0.3c5,0,8.1,3.6,8.1,7.9c0,3.1-1.4,5.9-3.6,7.9
		c-7.6,7.5-17.1,10.6-27,10.6c-22.4,0-40.2-17.9-40.2-40.2c0-22.1,17.9-39.9,40.2-39.9c20.7,0,37.1,15.4,39.1,35.6v0.9
		c0,5.7-4.8,10.7-10.6,10.7h-45.4c-0.5,0-0.5,0.5-0.5,0.8c3,6.7,9.5,12.4,17.2,12.4C133.6,91,137.2,86.1,143.4,84.7z M106.6,61.4
		c0,0.2-0.2,0.3-0.2,0.5s0.2,0.5,0.6,0.5h32.3c0.5,0,0.6-0.2,0.6-0.3s-0.2-0.3-0.2-0.5c-3.3-5.7-9.3-9.8-16.5-9.8
		S109.7,55.6,106.6,61.4z"/>
	<path fill="#68C1ED" d="M175.2,84.7c7.9,0,10.1,7.1,16.8,7.1c3.7,0,5.7-1.9,5.7-4s-0.8-4.2-8.5-8.4l-5.1-2.8
		c-12.9-7-17.2-13.4-17.2-23.6c0-11.3,9.9-22.4,27-22.4s24.1,10.6,24.1,16.6c0,5.4-3.9,8.9-9,8.9c-7.6,0-10.4-6.5-15.7-6.5
		c-3,0-4.3,2-4.3,3.9s1.1,3.6,6.8,6.8l9,5c12.3,6.5,14.9,14.3,14.9,22.2c0,11.3-8.9,23.3-27.3,23.3c-16.8,0-26.9-8.1-26.9-16.6
		C165.4,89,169.5,84.7,175.2,84.7z"/>
	<path fill="#68C1ED" d="M263.9,30.6c22.1,0,39.9,17.9,39.9,39.9c0,22.4-17.9,40.2-39.9,40.2c-22.4,0-40.2-17.9-40.2-40.2
		C223.7,48.5,241.6,30.6,263.9,30.6z M263.9,89.5c10.4,0,18.8-8.4,18.8-19c0-10.4-8.4-18.8-18.8-18.8c-10.6,0-19,8.4-19,18.8
		C245,81.1,253.4,89.5,263.9,89.5z"/>
	<path fill="#68C1ED" d="M379.5,48.2c0.9,1.4,1.7,3.6,1.7,6.4c0,5.3-4,8.5-9.3,8.5h-1.4c-8.4-0.9-9.6-11.3-23.6-11.3
		c-10.6,0-19,8.4-19,18.8c0,10.6,8.4,19,19,19c7.1,0,12-3.6,16.8-10.1c1.6-1.9,4-4.7,8.9-4.7c0.8,0,1.4,0,2.3,0.2
		c5.6,0.9,8.1,4.7,8.1,9.8c0,1.4-0.3,2.8-0.8,4c-6.8,13-20,22.1-35.6,22.1c-22.4,0-40.2-17.9-40.2-40.2c0-22.1,17.9-39.9,40.2-39.9
		C360.2,30.6,373.1,38.5,379.5,48.2z"/>
	<path fill="#68C1ED" d="M387.6,97.4c0,8.9,4.7,12.7,10.7,12.7c5.7,0,10.4-3.9,10.4-12.7V44.1c0-8.9-4.7-12.9-10.4-12.9
		c-6.1,0-10.7,4-10.7,12.9V97.4z"/>
	<path fill="#68C1ED" d="M452,30.6c7.6,0,14.8,2.2,20.8,5.9c1.9-3.6,5.1-5.3,9-5.3h0.9c7.1,0.6,9.5,6.8,9.5,12.9v53.3
		c0,6.4-3,12.7-9.5,12.7h-0.9c-3.9,0-7.1-1.6-9-5.1c-6.1,3.7-13.2,5.7-20.8,5.7c-22.1,0-40.1-18-40.1-40.1
		C412,48.6,430,30.6,452,30.6z M452,89.9c10.9,0,19.1-8.4,19.1-19.3c0-10.9-8.2-19.3-19.1-19.3c-10.7,0-19.1,8.4-19.1,19.3
		C432.9,81.6,441.3,89.9,452,89.9z"/>
	<path fill="#68C1ED" d="M499.9,12.9C499.9,4,504.5,0,510.6,0c5.7,0,10.4,4,10.4,12.9v84.5c0,8.9-4.7,12.7-10.4,12.7
		c-6.1,0-10.7-3.9-10.7-12.7V12.9z"/>
	<path fill="#68C1ED" d="M398.4,3c7,0,12.6,4.6,12.6,10.3c0,3.2-1.8,6.1-4.7,8c0,0.2-0.1,0.5-0.1,0.7c0,1.7,1.5,3.2,3.2,4.1v0.7
		c-3.1-0.1-6.4-0.6-9.1-3.3c-0.6,0.1-1.3,0.1-2,0.1c-7,0-12.6-4.6-12.6-10.3C385.7,7.6,391.4,3,398.4,3L398.4,3z M398.4,3"/>
</g>
</svg>
